<svg width="48" height="48" viewBox="0 0 48 48" fill="none" xmlns="http://www.w3.org/2000/svg">
<path d="M38.2843 39.8222H9.71573C9.10209 39.8222 8.49927 39.6606 7.96794 39.3536C7.43662 39.0466 6.99554 38.605 6.68908 38.0734C6.38263 37.5417 6.22162 36.9388 6.22225 36.3251C6.22289 35.7115 6.38515 35.1088 6.69271 34.5778L20.9774 9.92046C21.2844 9.39071 21.7252 8.95094 22.2557 8.64522C22.7862 8.33951 23.3877 8.17859 24 8.17859C24.6123 8.17859 25.2138 8.33951 25.7443 8.64522C26.2748 8.95094 26.7157 9.39071 27.0227 9.92046L41.3073 34.5778C41.6149 35.1088 41.7771 35.7115 41.7778 36.3251C41.7784 36.9388 41.6174 37.5417 41.3109 38.0734C41.0045 38.605 40.5634 39.0466 40.0321 39.3536C39.5008 39.6606 38.8979 39.8222 38.2843 39.8222ZM24 9.50694C23.6202 9.50473 23.2467 9.60354 22.9176 9.79325C22.5886 9.98295 22.3159 10.2567 22.1276 10.5865L7.84291 35.2439C7.65235 35.5728 7.5518 35.9462 7.55139 36.3264C7.55098 36.7066 7.65072 37.0802 7.84058 37.4096C8.03043 37.739 8.3037 38.0126 8.63288 38.2028C8.96206 38.393 9.33554 38.4932 9.71573 38.4932H38.2843C38.6645 38.4932 39.038 38.393 39.3671 38.2028C39.6963 38.0126 39.9696 37.739 40.1594 37.4096C40.3493 37.0802 40.449 36.7066 40.4486 36.3264C40.4482 35.9462 40.3477 35.5728 40.1571 35.2439L25.8725 10.5865C25.6841 10.2567 25.4114 9.98295 25.0824 9.79325C24.7534 9.60354 24.3798 9.50473 24 9.50694Z" fill="#FECDDD"/>
<path d="M24.0001 28.6582C23.3673 28.6603 22.7586 28.4155 22.3035 27.9759C21.8484 27.5362 21.5827 26.9364 21.563 26.3039L21.3173 19.3355C21.3052 18.9756 21.3656 18.6169 21.495 18.2809C21.6243 17.9448 21.82 17.6382 22.0703 17.3793C22.3206 17.1204 22.6205 16.9146 22.952 16.774C23.2835 16.6334 23.64 16.5609 24.0001 16.5609C24.3602 16.5609 24.7166 16.6334 25.0481 16.774C25.3797 16.9146 25.6795 17.1204 25.9298 17.3793C26.1801 17.6382 26.3758 17.9448 26.5052 18.2809C26.6345 18.6169 26.695 18.9756 26.6829 19.3355L26.4372 26.3051C26.4171 26.9373 26.1513 27.5369 25.6962 27.9763C25.2411 28.4157 24.6327 28.6603 24.0001 28.6582ZM24.0001 17.8865C23.8179 17.8865 23.6376 17.9232 23.47 17.9945C23.3023 18.0658 23.1508 18.1701 23.0243 18.3012C22.8979 18.4324 22.7992 18.5876 22.7341 18.7578C22.6691 18.9279 22.6389 19.1094 22.6456 19.2915L22.8913 26.2599C22.9019 26.5468 23.0233 26.8185 23.2301 27.0178C23.4369 27.2171 23.7129 27.3284 24.0001 27.3284C24.2872 27.3284 24.5632 27.2171 24.77 27.0178C24.9768 26.8185 25.0983 26.5468 25.1089 26.2599L25.3546 19.2915C25.3612 19.1094 25.3311 18.9279 25.266 18.7578C25.2009 18.5876 25.1022 18.4324 24.9758 18.3012C24.8494 18.1701 24.6978 18.0658 24.5302 17.9945C24.3625 17.9232 24.1822 17.8865 24.0001 17.8865Z" fill="#FD397A"/>
<path d="M24 35.1216C23.5062 35.1216 23.0235 34.9752 22.6129 34.7008C22.2023 34.4265 21.8823 34.0366 21.6934 33.5803C21.5044 33.1241 21.4549 32.6221 21.5513 32.1378C21.6476 31.6535 21.8854 31.2086 22.2346 30.8594C22.5837 30.5103 23.0286 30.2725 23.5129 30.1761C23.9973 30.0798 24.4993 30.1293 24.9555 30.3182C25.4117 30.5072 25.8016 30.8272 26.076 31.2378C26.3503 31.6484 26.4967 32.1311 26.4967 32.6249C26.496 33.2869 26.2328 33.9215 25.7647 34.3896C25.2966 34.8576 24.662 35.1209 24 35.1216ZM24 31.4572C23.7691 31.4572 23.5433 31.5257 23.3513 31.654C23.1593 31.7823 23.0096 31.9647 22.9212 32.178C22.8329 32.3914 22.8097 32.6262 22.8548 32.8527C22.8998 33.0792 23.0111 33.2873 23.1744 33.4506C23.3377 33.6139 23.5457 33.7251 23.7722 33.7701C23.9987 33.8152 24.2335 33.7921 24.4469 33.7037C24.6602 33.6153 24.8426 33.4656 24.9709 33.2736C25.0992 33.0816 25.1677 32.8558 25.1677 32.6249C25.1673 32.3153 25.0441 32.0186 24.8252 31.7997C24.6064 31.5808 24.3096 31.4576 24 31.4572Z" fill="#FD397A"/>
</svg>
