<svg width="36" height="36" viewBox="0 0 36 36" fill="none" xmlns="http://www.w3.org/2000/svg">
<g clip-path="url(#clip0_323_1729)">
<path d="M25.5 31.5V33C25.5 33.5967 25.2629 34.169 24.841 34.591C24.419 35.0129 23.8467 35.25 23.25 35.25H6.75C6.15326 35.25 5.58097 35.0129 5.15901 34.591C4.73705 34.169 4.5 33.5967 4.5 33V31.5H25.5Z" fill="#C9D0E2"/>
<path d="M25.5 18V19.5H4.5V18C4.5 17.4033 4.73705 16.831 5.15901 16.409C5.58097 15.9871 6.15326 15.75 6.75 15.75H23.25C23.8467 15.75 24.419 15.9871 24.841 16.409C25.2629 16.831 25.5 17.4033 25.5 18Z" fill="#C9D0E2"/>
<path d="M25.5 20.25C25.6989 20.25 25.8897 20.171 26.0303 20.0303C26.171 19.8897 26.25 19.6989 26.25 19.5V18C26.2478 17.3366 26.0258 16.6926 25.6187 16.1688C25.2116 15.6449 24.6424 15.2709 24 15.105V9C24 6.61305 23.0518 4.32387 21.364 2.63604C19.6761 0.948211 17.3869 0 15 0C12.6131 0 10.3239 0.948211 8.63604 2.63604C6.94821 4.32387 6 6.61305 6 9V10.75C6 10.9489 6.07902 11.1397 6.21967 11.2803C6.36032 11.421 6.55109 11.5 6.75 11.5H9.75C9.94891 11.5 10.1397 11.421 10.2803 11.2803C10.421 11.1397 10.5 10.9489 10.5 10.75V9C10.5 7.80653 10.9741 6.66193 11.818 5.81802C12.6619 4.97411 13.8065 4.5 15 4.5C16.1935 4.5 17.3381 4.97411 18.182 5.81802C19.0259 6.66193 19.5 7.80653 19.5 9V15H6.75C5.95435 15 5.19129 15.3161 4.62868 15.8787C4.06607 16.4413 3.75 17.2043 3.75 18V33C3.75 33.7957 4.06607 34.5587 4.62868 35.1213C5.19129 35.6839 5.95435 36 6.75 36H23.25C24.0457 36 24.8087 35.6839 25.3713 35.1213C25.9339 34.5587 26.25 33.7957 26.25 33V31.5C26.25 31.3011 26.171 31.1103 26.0303 30.9697C25.8897 30.829 25.6989 30.75 25.5 30.75C25.3011 30.75 25.1103 30.829 24.9697 30.9697C24.829 31.1103 24.75 31.3011 24.75 31.5V33C24.75 33.3978 24.592 33.7794 24.3107 34.0607C24.0294 34.342 23.6478 34.5 23.25 34.5H6.75C6.35218 34.5 5.97064 34.342 5.68934 34.0607C5.40804 33.7794 5.25 33.3978 5.25 33V32.25H21.75C21.9489 32.25 22.1397 32.171 22.2803 32.0303C22.421 31.8897 22.5 31.6989 22.5 31.5C22.5 31.3011 22.421 31.1103 22.2803 30.9697C22.1397 30.829 21.9489 30.75 21.75 30.75H5.25V20.25H25.5ZM15 3C13.4087 3 11.8826 3.63214 10.7574 4.75736C9.63214 5.88258 9 7.4087 9 9V10H7.5V9C7.5 7.01088 8.29018 5.10322 9.6967 3.6967C11.1032 2.29018 13.0109 1.5 15 1.5C16.9891 1.5 18.8968 2.29018 20.3033 3.6967C21.7098 5.10322 22.5 7.01088 22.5 9V15H21V9C21 7.4087 20.3679 5.88258 19.2426 4.75736C18.1174 3.63214 16.5913 3 15 3ZM5.25 18C5.25 17.6022 5.40804 17.2206 5.68934 16.9393C5.97064 16.658 6.35218 16.5 6.75 16.5H23.25C23.6478 16.5 24.0294 16.658 24.3107 16.9393C24.592 17.2206 24.75 17.6022 24.75 18V18.75H5.25V18Z" fill="#19233C"/>
<path d="M31.9425 28.5L27.2625 19.8075C27.0916 19.4876 26.837 19.2201 26.5259 19.0336C26.2148 18.8471 25.8589 18.7486 25.4962 18.7486C25.1335 18.7486 24.7776 18.8471 24.4666 19.0336C24.1555 19.2201 23.9009 19.4876 23.73 19.8075L19.0575 28.5C18.848 28.8883 18.7431 29.3243 18.7531 29.7654C18.7631 30.2065 18.8878 30.6373 19.1148 31.0156C19.3418 31.3939 19.6633 31.7067 20.0477 31.9231C20.4322 32.1395 20.8663 32.2522 21.3075 32.25H29.7C30.1397 32.2487 30.5716 32.1337 30.9538 31.9162C31.3359 31.6988 31.6554 31.3861 31.881 31.0088C32.1067 30.6314 32.231 30.202 32.2417 29.7625C32.2525 29.3229 32.1494 28.888 31.9425 28.5ZM25.5 30C25.3517 30 25.2067 29.956 25.0833 29.8736C24.96 29.7912 24.8639 29.6741 24.8071 29.537C24.7503 29.4 24.7355 29.2492 24.7644 29.1037C24.7933 28.9582 24.8648 28.8246 24.9697 28.7197C25.0746 28.6148 25.2082 28.5434 25.3537 28.5144C25.4992 28.4855 25.65 28.5003 25.787 28.5571C25.924 28.6139 26.0412 28.71 26.1236 28.8333C26.206 28.9567 26.25 29.1017 26.25 29.25C26.25 29.4489 26.171 29.6397 26.0303 29.7803C25.8897 29.921 25.6989 30 25.5 30ZM26.25 27H24.75L24 22.5H27L26.25 27Z" fill="#FD397A"/>
<path d="M15 22.5C14.6727 22.5033 14.3554 22.6137 14.0966 22.8142C13.8378 23.0147 13.6517 23.2944 13.5667 23.6105C13.4818 23.9267 13.5025 24.2619 13.6259 24.5652C13.7493 24.8684 13.9685 25.123 14.25 25.29V27.75C14.25 27.9489 14.329 28.1397 14.4697 28.2803C14.6103 28.421 14.8011 28.5 15 28.5C15.1989 28.5 15.3897 28.421 15.5303 28.2803C15.671 28.1397 15.75 27.9489 15.75 27.75V25.29C16.0316 25.123 16.2508 24.8684 16.3741 24.5652C16.4975 24.2619 16.5183 23.9267 16.4333 23.6105C16.3483 23.2944 16.1622 23.0147 15.9034 22.8142C15.6446 22.6137 15.3274 22.5033 15 22.5Z" fill="#FD397A"/>
</g>
<defs>
<clipPath id="clip0_323_1729">
<rect width="36" height="36" fill="white"/>
</clipPath>
</defs>
</svg>
