<svg width="20" height="20" viewBox="0 0 20 20" fill="none" xmlns="http://www.w3.org/2000/svg">
<path d="M14.05 7.3C14.05 6.22587 13.6233 5.19574 12.8638 4.43622C12.1042 3.6767 11.0741 3.25 9.99999 3.25C8.92586 3.25 7.89573 3.6767 7.13621 4.43622C6.37668 5.19574 5.94999 6.22587 5.94999 7.3C5.94999 12.025 3.92499 13.375 3.92499 13.375H16.075C16.075 13.375 14.05 12.025 14.05 7.3Z" stroke="#FD397A" stroke-width="1.25" stroke-linecap="round" stroke-linejoin="round"/>
<path d="M11.1678 16.075C11.0491 16.2796 10.8788 16.4494 10.6738 16.5674C10.4689 16.6855 10.2365 16.7476 10 16.7476C9.76352 16.7476 9.53116 16.6855 9.32622 16.5674C9.12128 16.4494 8.95095 16.2796 8.83228 16.075" stroke="#FD397A" stroke-width="1.25" stroke-linecap="round" stroke-linejoin="round"/>
<path d="M17 7C17 6.66048 16.9758 6.3266 16.9291 6C16.8802 5.65807 16.8066 5.32412 16.7101 5C16.4951 4.27757 16.1666 3.60401 15.7453 3M3 7C3 6.66048 3.02417 6.3266 3.07089 6C3.1198 5.65807 3.19342 5.32412 3.28988 5C3.50489 4.27757 3.83338 3.60401 4.25469 3" stroke="#FD397A" stroke-width="1.25" stroke-linecap="round" stroke-linejoin="round"/>
</svg>
