<svg width="48" height="48" viewBox="0 0 48 48" fill="none" xmlns="http://www.w3.org/2000/svg">
<path d="M24 15.3618C16.734 15.3618 9.37875 13.8315 9.37875 10.9068C9.37875 7.9822 16.734 6.44995 24 6.44995C31.266 6.44995 38.6213 7.98033 38.6213 10.905C38.6213 13.8296 31.266 15.3618 24 15.3618ZM24 7.76433C15.8756 7.76433 10.6913 9.62545 10.6913 10.9068C10.6913 12.1882 15.8756 14.0493 24 14.0493C32.1244 14.0493 37.3088 12.1882 37.3088 10.9068C37.3088 9.62545 32.1244 7.76433 24 7.76433Z" fill="#99A3BB"/>
<path d="M24 24.0919C16.734 24.0919 9.37875 22.5615 9.37875 19.6369V10.9069C9.37875 10.7328 9.44789 10.5659 9.57097 10.4428C9.69404 10.3198 9.86096 10.2506 10.035 10.2506C10.2091 10.2506 10.376 10.3198 10.499 10.4428C10.6221 10.5659 10.6913 10.7328 10.6913 10.9069C10.6913 12.1882 15.8756 14.0494 24 14.0494C32.1244 14.0494 37.3088 12.1882 37.3088 10.9069C37.3088 10.7328 37.3779 10.5659 37.501 10.4428C37.624 10.3198 37.791 10.2506 37.965 10.2506C38.139 10.2506 38.306 10.3198 38.429 10.4428C38.5521 10.5659 38.6213 10.7328 38.6213 10.9069V19.6369C38.6213 22.5615 31.266 24.0919 24 24.0919ZM10.6913 12.8707V19.6369C10.6913 20.9182 15.8756 22.7794 24 22.7794C32.1244 22.7794 37.3088 20.9182 37.3088 19.6369V12.8707C34.875 14.5125 29.4124 15.3619 24 15.3619C18.5876 15.3619 13.125 14.5125 10.6913 12.8707Z" fill="#99A3BB"/>
<path d="M24 41.5499C16.734 41.5499 9.37875 40.0195 9.37875 37.0949V28.363C9.37875 28.189 9.44789 28.0221 9.57097 27.899C9.69404 27.7759 9.86096 27.7068 10.035 27.7068C10.2091 27.7068 10.376 27.7759 10.499 27.899C10.6221 28.0221 10.6913 28.189 10.6913 28.363C10.6913 29.6459 15.8756 31.5093 24 31.5093C32.1244 31.5093 37.3088 29.6459 37.3088 28.363C37.3088 28.189 37.3779 28.0221 37.501 27.899C37.624 27.7759 37.791 27.7068 37.965 27.7068C38.139 27.7068 38.306 27.7759 38.429 27.899C38.5521 28.0221 38.6213 28.189 38.6213 28.363V37.093C38.6213 40.0177 31.266 41.5499 24 41.5499ZM10.6913 30.3284V37.093C10.6913 38.3744 15.8756 40.2355 24 40.2355C32.1244 40.2355 37.3088 38.3744 37.3088 37.093V30.3284C34.875 31.972 29.4124 32.8218 24 32.8218C18.5876 32.8218 13.125 31.972 10.6913 30.3284Z" fill="#99A3BB"/>
<path d="M24 32.8218C16.734 32.8218 9.37875 31.2903 9.37875 28.3631V19.6368C9.37875 19.4628 9.44789 19.2959 9.57097 19.1728C9.69404 19.0497 9.86096 18.9806 10.035 18.9806C10.2091 18.9806 10.376 19.0497 10.499 19.1728C10.6221 19.2959 10.6913 19.4628 10.6913 19.6368C10.6913 20.9182 15.8756 22.7793 24 22.7793C32.1244 22.7793 37.3088 20.9182 37.3088 19.6368C37.3088 19.4628 37.3779 19.2959 37.501 19.1728C37.624 19.0497 37.791 18.9806 37.965 18.9806C38.139 18.9806 38.306 19.0497 38.429 19.1728C38.5521 19.2959 38.6213 19.4628 38.6213 19.6368V28.3631C38.6213 31.2903 31.266 32.8218 24 32.8218ZM10.6913 21.6V28.3631C10.6913 29.646 15.8756 31.5093 24 31.5093C32.1244 31.5093 37.3088 29.646 37.3088 28.3631V21.6C34.875 23.2425 29.4124 24.0918 24 24.0918C18.5876 24.0918 13.125 23.2425 10.6913 21.6Z" fill="#009CF7"/>
</svg>
