<svg width="12" height="10" viewBox="0 0 12 10" fill="none" xmlns="http://www.w3.org/2000/svg">
<path d="M8.27273 8.99992V8.11103C8.27273 7.63953 8.08117 7.18735 7.74019 6.85395C7.39922 6.52055 6.93676 6.33325 6.45455 6.33325H2.81818C2.33597 6.33325 1.87351 6.52055 1.53253 6.85395C1.19156 7.18735 1 7.63953 1 8.11103V8.99992" stroke="black" stroke-linecap="round" stroke-linejoin="round"/>
<path d="M4.6363 4.55556C5.64045 4.55556 6.45448 3.75962 6.45448 2.77778C6.45448 1.79594 5.64045 1 4.6363 1C3.63214 1 2.81812 1.79594 2.81812 2.77778C2.81812 3.75962 3.63214 4.55556 4.6363 4.55556Z" stroke="black" stroke-linecap="round" stroke-linejoin="round"/>
<path d="M11.0001 9V8.11111C10.9998 7.71721 10.8657 7.33457 10.6189 7.02325C10.3721 6.71194 10.0265 6.48959 9.63647 6.39111" stroke="black" stroke-linecap="round" stroke-linejoin="round"/>
<path d="M7.81812 1.05762C8.20921 1.15553 8.55586 1.37793 8.80341 1.68976C9.05095 2.00158 9.18532 2.3851 9.18532 2.77984C9.18532 3.17458 9.05095 3.5581 8.80341 3.86992C8.55586 4.18175 8.20921 4.40415 7.81812 4.50206" stroke="black" stroke-linecap="round" stroke-linejoin="round"/>
</svg>
