<svg width="30" height="24" viewBox="0 0 30 24" fill="none" xmlns="http://www.w3.org/2000/svg">
<path d="M13.252 10C14.1401 6.54955 17.2723 4 21 4C25.4183 4 29 7.58172 29 12C29 16.4183 25.4183 20 21 20C17.2723 20 14.1401 17.4505 13.252 14" stroke="#009CF7"/>
<path d="M11.4722 8C10.3736 6.7725 8.777 6 7 6C3.68629 6 1 8.68629 1 12C1 15.3137 3.68629 18 7 18C8.777 18 10.3736 17.2275 11.4722 16" stroke="#FD397A"/>
<path d="M18.3333 12C18.3333 13.4728 19.5272 14.6667 21 14.6667C22.4728 14.6667 23.6667 13.4728 23.6667 12C23.6667 10.5272 22.4728 9.33333 21 9.33333C19.5272 9.33333 18.3333 10.5272 18.3333 12ZM4.33333 12C4.33333 13.4728 5.52724 14.6667 7 14.6667C8.47276 14.6667 9.66667 13.4728 9.66667 12C9.66667 10.5272 8.47276 9.33333 7 9.33333C5.52724 9.33333 4.33333 10.5272 4.33333 12ZM21 11.5H7V12.5H21V11.5Z" fill="#19233C"/>
</svg>
