<svg width="36" height="36" viewBox="0 0 36 36" fill="none" xmlns="http://www.w3.org/2000/svg">
<path d="M25.5 29.01L22.7925 21C22.6386 20.5647 22.3546 20.1873 21.9789 19.919C21.6033 19.6507 21.1541 19.5044 20.6925 19.5C19.815 19.5 19.4175 19.905 18 20.85C16.6275 19.935 16.185 19.5 15.3075 19.5C14.8459 19.5044 14.3967 19.6507 14.0211 19.919C13.6454 20.1873 13.3614 20.5647 13.2075 21L10.5375 29.01C10.4993 29.123 10.4887 29.2434 10.5064 29.3614C10.5241 29.4793 10.5697 29.5913 10.6393 29.6881C10.709 29.7849 10.8007 29.8637 10.9069 29.9179C11.0131 29.9722 11.1307 30.0003 11.25 30H24.75C24.8724 30.0065 24.9945 29.9829 25.1056 29.9313C25.2168 29.8797 25.3136 29.8016 25.3876 29.7039C25.4616 29.6063 25.5106 29.4919 25.5301 29.371C25.5497 29.25 25.5394 29.126 25.5 29.01Z" fill="#C9D0E2"/>
<path d="M27 28.5H9C8.80109 28.5 8.61032 28.579 8.46967 28.7197C8.32902 28.8603 8.25 29.0511 8.25 29.25C8.25 29.4489 8.32902 29.6397 8.46967 29.7803C8.61032 29.921 8.80109 30 9 30H9.75V31.5C9.76824 32.3864 10.0479 33.2476 10.5538 33.9756C11.0598 34.7036 11.7695 35.2659 12.5939 35.592C13.4183 35.9181 14.3207 35.9934 15.1877 35.8084C16.0548 35.6235 16.8479 35.1866 17.4675 34.5525C17.5372 34.4822 17.6202 34.4264 17.7116 34.3883C17.803 34.3503 17.901 34.3307 18 34.3307C18.099 34.3307 18.197 34.3503 18.2884 34.3883C18.3798 34.4264 18.4628 34.4822 18.5325 34.5525C19.1498 35.1846 19.9396 35.621 20.8033 35.8072C21.667 35.9935 22.5664 35.9213 23.3893 35.5998C24.2123 35.2783 24.9224 34.7217 25.4311 33.9993C25.9398 33.2769 26.2246 32.4207 26.25 31.5375V30H27C27.1989 30 27.3897 29.921 27.5303 29.7803C27.671 29.6397 27.75 29.4489 27.75 29.25C27.75 29.0511 27.671 28.8603 27.5303 28.7197C27.3897 28.579 27.1989 28.5 27 28.5ZM24.75 31.5C24.7323 32.0776 24.5482 32.6377 24.2198 33.1132C23.8914 33.5886 23.4327 33.9591 22.8988 34.1801C22.3649 34.4011 21.7786 34.4632 21.2102 34.359C20.6419 34.2547 20.1157 33.9886 19.695 33.5925C19.4913 33.3613 19.2423 33.1745 18.9634 33.0435C18.6845 32.9125 18.3816 32.8402 18.0737 32.831C17.7657 32.8219 17.4591 32.8761 17.1729 32.9903C16.8867 33.1045 16.6271 33.2763 16.41 33.495C16.0025 33.9188 15.4794 34.2136 14.9057 34.3426C14.3321 34.4716 13.7332 34.4291 13.1834 34.2206C12.6337 34.012 12.1574 33.6465 11.8136 33.1695C11.4699 32.6925 11.2739 32.125 11.25 31.5375V30H24.75V31.5Z" fill="#19233C"/>
<path d="M21.7875 33C20.6475 33 20.6775 31.9575 18.9825 31.5H23.25C23.2501 31.8914 23.0972 32.2674 22.824 32.5476C22.5508 32.8279 22.1788 32.9902 21.7875 33ZM14.25 33C13.8522 33 13.4706 32.842 13.1893 32.5607C12.908 32.2794 12.75 31.8978 12.75 31.5H17.0175C15.33 31.9575 15.36 33 14.25 33Z" fill="#FD397A"/>
<path d="M35.542 25.29L20.8195 1.5C20.546 1.04702 20.1613 0.671451 19.7019 0.408929C19.2425 0.146406 18.7236 0.00564294 18.1945 0L17.8045 0C17.2754 0.00564294 16.7565 0.146406 16.2971 0.408929C15.8377 0.671451 15.453 1.04702 15.1795 1.5L0.456982 25.29C0.171188 25.7587 0.0151022 26.295 0.00470599 26.8439C-0.00569022 27.3927 0.129977 27.9345 0.397816 28.4137C0.665655 28.893 1.05604 29.2924 1.529 29.5711C2.00196 29.8498 2.5405 29.9978 3.08948 30H5.99948C6.19839 30 6.38916 29.921 6.52981 29.7803C6.67046 29.6397 6.74948 29.4489 6.74948 29.25C6.74948 29.0511 6.67046 28.8603 6.52981 28.7197C6.38916 28.579 6.19839 28.5 5.99948 28.5H3.08948C2.66779 28.5 2.26336 28.3325 1.96518 28.0343C1.667 27.7361 1.49948 27.3317 1.49948 26.91C1.49948 26.25 0.344482 28.335 16.4545 2.25C16.5972 2.02058 16.7961 1.83132 17.0323 1.70009C17.2685 1.56886 17.5343 1.5 17.8045 1.5H18.1945C18.4647 1.5 18.7304 1.56886 18.9667 1.70009C19.2029 1.83132 19.4017 2.02058 19.5445 2.25L34.2595 26.0775C34.4073 26.3181 34.4885 26.5938 34.4945 26.8761C34.5005 27.1585 34.4312 27.4373 34.2937 27.684C34.1563 27.9307 33.9556 28.1363 33.7123 28.2797C33.469 28.4232 33.1919 28.4992 32.9095 28.5H29.9995C29.8006 28.5 29.6098 28.579 29.4692 28.7197C29.3285 28.8603 29.2495 29.0511 29.2495 29.25C29.2495 29.4489 29.3285 29.6397 29.4692 29.7803C29.6098 29.921 29.8006 30 29.9995 30H32.9095C33.4585 29.9978 33.997 29.8498 34.47 29.5711C34.9429 29.2924 35.3333 28.893 35.6011 28.4137C35.869 27.9345 36.0047 27.3927 35.9943 26.8439C35.9839 26.295 35.8278 25.7587 35.542 25.29Z" fill="#19233C"/>
<path d="M32.3625 25.8525L18.6375 3.63751C18.5702 3.52897 18.4764 3.43941 18.3648 3.3773C18.2533 3.31519 18.1277 3.28259 18 3.28259C17.8723 3.28259 17.7467 3.31519 17.6352 3.3773C17.5236 3.43941 17.4298 3.52897 17.3625 3.63751L3.6375 25.8525C3.56648 25.9661 3.5272 26.0967 3.52375 26.2307C3.5203 26.3647 3.5528 26.4971 3.61788 26.6142C3.68296 26.7314 3.77824 26.829 3.8938 26.8968C4.00936 26.9646 4.141 27.0003 4.275 27H9C9.19891 27 9.38968 26.921 9.53033 26.7803C9.67098 26.6397 9.75 26.4489 9.75 26.25C9.75 26.0511 9.67098 25.8603 9.53033 25.7197C9.38968 25.579 9.19891 25.5 9 25.5H5.6175L18 5.46001L30.3825 25.5H27C26.8011 25.5 26.6103 25.579 26.4697 25.7197C26.329 25.8603 26.25 26.0511 26.25 26.25C26.25 26.4489 26.329 26.6397 26.4697 26.7803C26.6103 26.921 26.8011 27 27 27H31.725C31.859 27.0003 31.9906 26.9646 32.1062 26.8968C32.2218 26.829 32.317 26.7314 32.3821 26.6142C32.4472 26.4971 32.4797 26.3647 32.4763 26.2307C32.4728 26.0967 32.4335 25.9661 32.3625 25.8525Z" fill="#19233C"/>
<path d="M18 18C18.4142 18 18.75 17.6642 18.75 17.25C18.75 16.8358 18.4142 16.5 18 16.5C17.5858 16.5 17.25 16.8358 17.25 17.25C17.25 17.6642 17.5858 18 18 18Z" fill="#FD397A"/>
<path d="M18.75 15H17.25L16.5 10.5H19.5L18.75 15Z" fill="#FD397A"/>
</svg>
