<svg width="36" height="32" viewBox="0 0 36 32" fill="none" xmlns="http://www.w3.org/2000/svg">
<path d="M32.2843 31.8222H3.71573C3.10209 31.8222 2.49927 31.6606 1.96794 31.3536C1.43662 31.0466 0.995535 30.605 0.689082 30.0734C0.382628 29.5417 0.221617 28.9388 0.222254 28.3251C0.222891 27.7115 0.385153 27.1088 0.69271 26.5778L14.9774 1.92046C15.2844 1.39071 15.7252 0.950936 16.2557 0.645222C16.7862 0.339508 17.3877 0.178589 18 0.178589C18.6123 0.178589 19.2138 0.339508 19.7443 0.645222C20.2748 0.950936 20.7157 1.39071 21.0227 1.92046L35.3073 26.5778C35.6149 27.1088 35.7771 27.7115 35.7778 28.3251C35.7784 28.9388 35.6174 29.5417 35.3109 30.0734C35.0045 30.605 34.5634 31.0466 34.0321 31.3536C33.5008 31.6606 32.8979 31.8222 32.2843 31.8222ZM18 1.50694C17.6202 1.50473 17.2467 1.60354 16.9176 1.79325C16.5886 1.98295 16.3159 2.25672 16.1276 2.58651L1.84291 27.2439C1.65235 27.5728 1.5518 27.9462 1.55139 28.3264C1.55098 28.7066 1.65072 29.0802 1.84058 29.4096C2.03043 29.739 2.3037 30.0126 2.63288 30.2028C2.96206 30.393 3.33554 30.4932 3.71573 30.4932H32.2843C32.6645 30.4932 33.038 30.393 33.3671 30.2028C33.6963 30.0126 33.9696 29.739 34.1594 29.4096C34.3493 29.0802 34.449 28.7066 34.4486 28.3264C34.4482 27.9462 34.3477 27.5728 34.1571 27.2439L19.8725 2.58651C19.6841 2.25672 19.4114 1.98295 19.0824 1.79325C18.7534 1.60354 18.3798 1.50473 18 1.50694Z" fill="#FECDDD"/>
<path d="M18.0001 20.6582C17.3673 20.6603 16.7586 20.4155 16.3035 19.9759C15.8484 19.5362 15.5827 18.9364 15.563 18.3039L15.3173 11.3355C15.3052 10.9756 15.3656 10.6169 15.495 10.2809C15.6243 9.94481 15.82 9.63821 16.0703 9.37932C16.3206 9.12044 16.6205 8.91457 16.952 8.77397C17.2835 8.63337 17.64 8.56091 18.0001 8.56091C18.3602 8.56091 18.7166 8.63337 19.0481 8.77397C19.3797 8.91457 19.6795 9.12044 19.9298 9.37932C20.1801 9.63821 20.3758 9.94481 20.5052 10.2809C20.6345 10.6169 20.695 10.9756 20.6829 11.3355L20.4372 18.3051C20.4171 18.9373 20.1513 19.5369 19.6962 19.9763C19.2411 20.4157 18.6327 20.6603 18.0001 20.6582ZM18.0001 9.88646C17.8179 9.8865 17.6376 9.92324 17.47 9.9945C17.3023 10.0658 17.1508 10.1701 17.0243 10.3012C16.8979 10.4324 16.7992 10.5876 16.7341 10.7578C16.6691 10.9279 16.6389 11.1094 16.6456 11.2915L16.8913 18.2599C16.9019 18.5468 17.0233 18.8185 17.2301 19.0178C17.4369 19.2171 17.7129 19.3284 18.0001 19.3284C18.2872 19.3284 18.5632 19.2171 18.77 19.0178C18.9768 18.8185 19.0983 18.5468 19.1089 18.2599L19.3546 11.2915C19.3612 11.1094 19.3311 10.9279 19.266 10.7578C19.2009 10.5876 19.1022 10.4324 18.9758 10.3012C18.8494 10.1701 18.6978 10.0658 18.5302 9.9945C18.3625 9.92324 18.1822 9.8865 18.0001 9.88646Z" fill="#FD397A"/>
<path d="M18 27.1216C17.5062 27.1216 17.0235 26.9752 16.6129 26.7008C16.2023 26.4265 15.8823 26.0366 15.6934 25.5803C15.5044 25.1241 15.4549 24.6221 15.5513 24.1378C15.6476 23.6535 15.8854 23.2086 16.2346 22.8594C16.5837 22.5103 17.0286 22.2725 17.5129 22.1761C17.9973 22.0798 18.4993 22.1293 18.9555 22.3182C19.4117 22.5072 19.8016 22.8272 20.076 23.2378C20.3503 23.6484 20.4967 24.1311 20.4967 24.6249C20.496 25.2869 20.2328 25.9215 19.7647 26.3896C19.2966 26.8576 18.662 27.1209 18 27.1216ZM18 23.4572C17.7691 23.4572 17.5433 23.5257 17.3513 23.654C17.1593 23.7823 17.0096 23.9647 16.9212 24.178C16.8329 24.3914 16.8097 24.6262 16.8548 24.8527C16.8998 25.0792 17.0111 25.2873 17.1744 25.4506C17.3377 25.6139 17.5457 25.7251 17.7722 25.7701C17.9987 25.8152 18.2335 25.7921 18.4469 25.7037C18.6602 25.6153 18.8426 25.4656 18.9709 25.2736C19.0992 25.0816 19.1677 24.8558 19.1677 24.6249C19.1673 24.3153 19.0441 24.0186 18.8252 23.7997C18.6064 23.5808 18.3096 23.4576 18 23.4572Z" fill="#FD397A"/>
</svg>
