<svg width="24" height="24" viewBox="0 0 24 24" fill="none" xmlns="http://www.w3.org/2000/svg">
<path d="M13.89 9.46979C13.89 9.12461 13.6102 8.84479 13.265 8.84479C12.9198 8.84479 12.64 9.12461 12.64 9.46979L13.89 9.46979ZM13.265 13.2652H12.64V13.8902H13.265V13.2652ZM17.0604 13.8902C17.4056 13.8902 17.6854 13.6103 17.6854 13.2652C17.6854 12.92 17.4056 12.6402 17.0604 12.6402V13.8902ZM12.64 9.46979V13.2652H13.89V9.46979L12.64 9.46979ZM13.265 13.8902H17.0604V12.6402H13.265V13.8902Z" fill="#19233C"/>
<path d="M7.89765 18.6326C10.862 21.597 15.6682 21.597 18.6326 18.6326C21.5969 15.6682 21.5969 10.8621 18.6326 7.8977C15.6682 4.93334 10.862 4.93334 7.89765 7.8977L4.42787 11.3675M4.42787 11.3675V6.30699M4.42787 11.3675H9.46974" stroke="#19233C" stroke-width="1.25" stroke-linecap="round"/>
</svg>
