<svg width="20" height="20" viewBox="0 0 20 20" fill="none" xmlns="http://www.w3.org/2000/svg">
<path d="M18.3334 4.375V8.54167H14.1667" stroke="black" stroke-width="1.25" stroke-linecap="round" stroke-linejoin="round"/>
<path d="M1.66675 15.625V11.4584H5.83341" stroke="black" stroke-width="1.25" stroke-linecap="round" stroke-linejoin="round"/>
<path d="M3.56826 7.77723C3.95248 6.71531 4.60549 5.76589 5.46634 5.01756C6.3272 4.26923 7.36786 3.74637 8.49121 3.49778C9.61456 3.24919 10.784 3.28297 11.8904 3.59597C12.9968 3.90896 14.0041 4.49097 14.8183 5.28769L18.3334 8.51817M1.66675 11.4819L5.1819 14.7124C5.9961 15.5091 7.00339 16.0911 8.10979 16.4041C9.21618 16.7171 10.3856 16.7509 11.509 16.5023C12.6323 16.2537 13.673 15.7309 14.5338 14.9825C15.3947 14.2342 16.0477 13.2848 16.4319 12.2228" stroke="black" stroke-width="1.25" stroke-linecap="round" stroke-linejoin="round"/>
</svg>
