<svg width="20" height="20" viewBox="0 0 20 20" fill="none" xmlns="http://www.w3.org/2000/svg">
<path d="M13 13L10 10L7 13" stroke="white" stroke-width="1.25" stroke-linecap="round" stroke-linejoin="round"/>
<path d="M10 10V16.75" stroke="white" stroke-width="1.25" stroke-linecap="round" stroke-linejoin="round"/>
<path d="M16.2925 14.7925C17.024 14.3937 17.6018 13.7627 17.9349 12.999C18.2679 12.2353 18.3371 11.3824 18.1316 10.575C17.9261 9.76761 17.4576 9.05163 16.8 8.54008C16.1424 8.02854 15.3331 7.75055 14.5 7.75H13.555C13.328 6.87193 12.9048 6.05675 12.3174 5.36574C11.73 4.67474 10.9936 4.12589 10.1635 3.76045C9.33349 3.39502 8.43138 3.22252 7.52506 3.25591C6.61873 3.2893 5.73177 3.52772 4.93085 3.95325C4.12994 4.37877 3.4359 4.98033 2.90094 5.71269C2.36597 6.44504 2.00399 7.28915 1.84221 8.18155C1.68042 9.07394 1.72305 9.9914 1.96688 10.8649C2.21071 11.7385 2.6494 12.5454 3.24997 13.225" stroke="white" stroke-width="1.25" stroke-linecap="round" stroke-linejoin="round"/>
<path d="M13 13L10 10L7 13" stroke="white" stroke-width="1.25" stroke-linecap="round" stroke-linejoin="round"/>
</svg>
